<svg width="144" height="19" viewBox="0 0 144 19" fill="none" xmlns="http://www.w3.org/2000/svg">
<path d="M10.2226 2.18691L3.41413 7.07937C1.98754 8.10449 1.66207 10.092 2.68719 11.5186L2.69092 11.5238C3.71603 12.9504 5.70353 13.2759 7.13013 12.2508L13.9386 7.35831C15.3652 6.33319 15.6907 4.34567 14.6656 2.91907L14.6619 2.91387C13.6367 1.48726 11.6492 1.16179 10.2226 2.18691Z" fill="#EA4335" stroke="#1E1E1E" stroke-width="0.347327" stroke-miterlimit="10"/>
<path d="M2.69092 7.80699L2.68719 7.81219C1.66207 9.2388 1.98754 11.2263 3.41413 12.2514L10.2226 17.1439C11.6492 18.169 13.6367 17.8436 14.6619 16.4169L14.6656 16.4117C15.6907 14.9851 15.3652 12.9976 13.9386 11.9725L7.13013 7.08004C5.70353 6.05492 3.71603 6.38039 2.69092 7.80699Z" fill="#4285F4" stroke="#1E1E1E" stroke-width="0.347327" stroke-miterlimit="10"/>
<path d="M26.6592 7.07586L19.8507 11.9683C18.4241 12.9934 18.0986 14.981 19.1237 16.4076L19.1274 16.4128C20.1526 17.8394 22.1401 18.1648 23.5667 17.1397L30.3752 12.2473C31.8018 11.2221 32.1272 9.23462 31.1021 7.80801L31.0984 7.80281C30.0733 6.37621 28.0858 6.05074 26.6592 7.07586Z" fill="#F9AB00" stroke="#1E1E1E" stroke-width="0.347327" stroke-miterlimit="10"/>
<path d="M19.1274 2.91557L19.1237 2.92077C18.0986 4.34738 18.4241 6.3349 19.8507 7.36002L26.6592 12.2525C28.0858 13.2776 30.0733 12.9521 31.0984 11.5255L31.1021 11.5203C32.1272 10.0937 31.8018 8.1062 30.3752 7.08108L23.5667 2.18862C22.1401 1.1635 20.1526 1.48897 19.1274 2.91557Z" fill="#34A853" stroke="#1E1E1E" stroke-width="0.347327" stroke-miterlimit="10"/>
<path d="M43.2316 15H39.1658V3.53058H43.2652C44.4189 3.53058 45.412 3.76019 46.2446 4.21942C47.0772 4.67491 47.7175 5.33015 48.1655 6.18513C48.6172 7.0401 48.8431 8.06309 48.8431 9.25409C48.8431 10.4488 48.6172 11.4755 48.1655 12.3343C47.7175 13.193 47.0734 13.8519 46.2334 14.3112C45.3971 14.7704 44.3965 15 43.2316 15ZM41.5907 12.9223H43.1308C43.8477 12.9223 44.4506 12.7953 44.9397 12.5415C45.4325 12.2839 45.8022 11.8862 46.0486 11.3486C46.2987 10.8072 46.4238 10.1091 46.4238 9.25409C46.4238 8.40658 46.2987 7.71401 46.0486 7.17638C45.8022 6.63875 45.4344 6.243 44.9453 5.98911C44.4562 5.73523 43.8533 5.60829 43.1364 5.60829H41.5907V12.9223ZM53.884 15.168C52.9992 15.168 52.2375 14.9888 51.5991 14.6304C50.9644 14.2682 50.4753 13.7567 50.1318 13.0959C49.7883 12.4313 49.6166 11.6454 49.6166 10.7382C49.6166 9.85332 49.7883 9.07675 50.1318 8.40845C50.4753 7.74014 50.9588 7.21931 51.5823 6.84596C52.2095 6.47261 52.945 6.28593 53.7888 6.28593C54.3563 6.28593 54.8846 6.3774 55.3737 6.56035C55.8665 6.73956 56.2959 7.01024 56.6618 7.37239C57.0314 7.73454 57.3189 8.19003 57.5242 8.73886C57.7295 9.28396 57.8322 9.92239 57.8322 10.6542V11.3094H50.5686V9.83092H55.5865C55.5865 9.48744 55.5118 9.18315 55.3625 8.91807C55.2131 8.65299 55.0059 8.44578 54.7409 8.29644C54.4795 8.14336 54.1752 8.06683 53.828 8.06683C53.4659 8.06683 53.1448 8.15083 52.8648 8.31884C52.5885 8.48312 52.3719 8.70526 52.2151 8.98528C52.0583 9.26156 51.978 9.56957 51.9743 9.90933V11.315C51.9743 11.7406 52.0527 12.1084 52.2095 12.4183C52.3701 12.7281 52.5959 12.9671 52.8872 13.1351C53.1784 13.3031 53.5237 13.3871 53.9232 13.3871C54.1883 13.3871 54.431 13.3498 54.6512 13.2751C54.8715 13.2004 55.0601 13.0884 55.2169 12.9391C55.3737 12.7897 55.4932 12.6068 55.5753 12.3903L57.7818 12.5359C57.6698 13.066 57.4402 13.529 57.093 13.9247C56.7495 14.3168 56.3052 14.6229 55.7601 14.8432C55.2187 15.0597 54.5934 15.168 53.884 15.168ZM66.5469 6.39794L63.5395 15H60.8514L57.844 6.39794H60.3642L62.1507 12.5527H62.2403L64.0212 6.39794H66.5469ZM67.1818 15V3.53058H74.7758V5.52989H69.6067V8.26284H74.2717V10.2621H69.6067V15H67.1818ZM79.02 15.168C78.1352 15.168 77.3735 14.9888 76.7351 14.6304C76.1004 14.2682 75.6113 13.7567 75.2678 13.0959C74.9243 12.4313 74.7526 11.6454 74.7526 10.7382C74.7526 9.85332 74.9243 9.07675 75.2678 8.40845C75.6113 7.74014 76.0948 7.21931 76.7183 6.84596C77.3455 6.47261 78.081 6.28593 78.9248 6.28593C79.4923 6.28593 80.0206 6.3774 80.5097 6.56035C81.0025 6.73956 81.4319 7.01024 81.7978 7.37239C82.1674 7.73454 82.4549 8.19003 82.6602 8.73886C82.8655 9.28396 82.9682 9.92239 82.9682 10.6542V11.3094H75.7046V9.83092H80.7225C80.7225 9.48744 80.6478 9.18315 80.4985 8.91807C80.3491 8.65299 80.1419 8.44578 79.8769 8.29644C79.6155 8.14336 79.3112 8.06683 78.964 8.06683C78.6019 8.06683 78.2808 8.15083 78.0008 8.31884C77.7245 8.48312 77.5079 8.70526 77.3511 8.98528C77.1943 9.26156 77.114 9.56957 77.1103 9.90933V11.315C77.1103 11.7406 77.1887 12.1084 77.3455 12.4183C77.5061 12.7281 77.7319 12.9671 78.0232 13.1351C78.3144 13.3031 78.6597 13.3871 79.0592 13.3871C79.3243 13.3871 79.567 13.3498 79.7873 13.2751C80.0075 13.2004 80.1961 13.0884 80.3529 12.9391C80.5097 12.7897 80.6292 12.6068 80.7113 12.3903L82.9178 12.5359C82.8058 13.066 82.5762 13.529 82.229 13.9247C81.8855 14.3168 81.4412 14.6229 80.8961 14.8432C80.3547 15.0597 79.7294 15.168 79.02 15.168ZM91.0515 8.85087L88.8674 8.98528C88.83 8.7986 88.7497 8.63059 88.6265 8.48125C88.5033 8.32817 88.3409 8.20683 88.1393 8.11723C87.9414 8.02389 87.7044 7.97722 87.4281 7.97722C87.0585 7.97722 86.7467 8.05563 86.4928 8.21243C86.2389 8.36551 86.112 8.57085 86.112 8.82847C86.112 9.03381 86.1941 9.20742 86.3584 9.3493C86.5227 9.49117 86.8046 9.60504 87.2041 9.69091L88.7609 10.0045C89.5973 10.1763 90.2208 10.4526 90.6314 10.8334C91.0421 11.2142 91.2475 11.7145 91.2475 12.3343C91.2475 12.898 91.0813 13.3927 90.7491 13.8183C90.4205 14.244 89.9687 14.5762 89.3938 14.8152C88.8226 15.0504 88.1636 15.168 87.4169 15.168C86.2781 15.168 85.3709 14.9309 84.6951 14.4568C84.0231 13.9789 83.6292 13.3292 83.5135 12.5079L85.86 12.3847C85.9309 12.7319 86.1027 12.997 86.3752 13.1799C86.6478 13.3591 86.9969 13.4487 87.4225 13.4487C87.8406 13.4487 88.1766 13.3684 88.4305 13.2079C88.6881 13.0436 88.8188 12.8327 88.8226 12.5751C88.8188 12.3585 88.7273 12.1812 88.5481 12.043C88.3689 11.9012 88.0926 11.7929 87.7193 11.7182L86.2296 11.4214C85.3896 11.2534 84.7642 10.9622 84.3535 10.5478C83.9466 10.1333 83.7431 9.60504 83.7431 8.96288C83.7431 8.41031 83.8924 7.93429 84.1911 7.5348C84.4935 7.13531 84.9173 6.82729 85.4624 6.61075C86.0112 6.3942 86.6534 6.28593 87.3889 6.28593C88.4753 6.28593 89.3303 6.51554 89.9538 6.97477C90.581 7.43399 90.9469 8.05936 91.0515 8.85087ZM96.6944 6.39794V8.19003H91.5141V6.39794H96.6944ZM92.6902 4.33703H95.0759V12.3567C95.0759 12.5769 95.1095 12.7487 95.1767 12.8719C95.2439 12.9914 95.3373 13.0754 95.4567 13.1239C95.5799 13.1724 95.7218 13.1967 95.8823 13.1967C95.9944 13.1967 96.1064 13.1874 96.2184 13.1687C96.3304 13.1463 96.4162 13.1295 96.476 13.1183L96.8512 14.8936C96.7317 14.9309 96.5637 14.9739 96.3472 15.0224C96.1306 15.0747 95.8674 15.1064 95.5575 15.1176C94.9826 15.14 94.4785 15.0635 94.0454 14.888C93.6161 14.7125 93.2819 14.44 93.043 14.0703C92.804 13.7007 92.6864 13.234 92.6902 12.6703V4.33703ZM100.682 15V3.53058H103.107V13.0007H108.024V15H100.682ZM111.407 15.1624C110.858 15.1624 110.369 15.0672 109.94 14.8768C109.51 14.6826 109.17 14.397 108.92 14.0199C108.674 13.6391 108.551 13.165 108.551 12.5975C108.551 12.1196 108.638 11.7182 108.814 11.3934C108.989 11.0686 109.228 10.8072 109.531 10.6094C109.833 10.4115 110.177 10.2621 110.561 10.1613C110.949 10.0605 111.356 9.9896 111.782 9.94853C112.282 9.89626 112.686 9.84772 112.992 9.80292C113.298 9.75438 113.52 9.68345 113.658 9.59011C113.796 9.49677 113.865 9.35863 113.865 9.17569V9.14208C113.865 8.7874 113.753 8.51298 113.529 8.31884C113.309 8.1247 112.995 8.02762 112.588 8.02762C112.159 8.02762 111.818 8.12283 111.564 8.31324C111.31 8.49992 111.142 8.73513 111.06 9.01888L108.853 8.83967C108.965 8.31697 109.185 7.86522 109.514 7.4844C109.842 7.09984 110.266 6.80489 110.785 6.59955C111.308 6.39047 111.913 6.28593 112.6 6.28593C113.078 6.28593 113.535 6.34193 113.972 6.45394C114.412 6.56595 114.802 6.73956 115.142 6.97477C115.486 7.20998 115.756 7.5124 115.954 7.88202C116.152 8.2479 116.251 8.68659 116.251 9.19809V15H113.989V13.8071H113.921C113.783 14.076 113.598 14.313 113.367 14.5184C113.135 14.72 112.857 14.8787 112.532 14.9944C112.208 15.1064 111.832 15.1624 111.407 15.1624ZM112.09 13.5159C112.441 13.5159 112.751 13.4468 113.02 13.3087C113.289 13.1668 113.499 12.9764 113.653 12.7375C113.806 12.4985 113.882 12.2279 113.882 11.9254V11.0126C113.807 11.0611 113.705 11.1059 113.574 11.147C113.447 11.1843 113.303 11.2198 113.143 11.2534C112.982 11.2833 112.822 11.3113 112.661 11.3374C112.501 11.3598 112.355 11.3803 112.224 11.399C111.944 11.4401 111.7 11.5054 111.491 11.595C111.282 11.6846 111.119 11.806 111.004 11.959C110.888 12.1084 110.83 12.2951 110.83 12.5191C110.83 12.8439 110.948 13.0922 111.183 13.2639C111.422 13.4319 111.724 13.5159 112.09 13.5159ZM121.347 18.405C120.574 18.405 119.911 18.2986 119.358 18.0858C118.81 17.8767 118.373 17.5911 118.048 17.2289C117.723 16.8668 117.512 16.4598 117.415 16.0081L119.622 15.7112C119.689 15.883 119.795 16.0435 119.941 16.1929C120.087 16.3422 120.279 16.4617 120.518 16.5513C120.76 16.6446 121.055 16.6913 121.403 16.6913C121.922 16.6913 122.349 16.5644 122.685 16.3105C123.025 16.0603 123.195 15.6403 123.195 15.0504V13.4767H123.094C122.989 13.7157 122.833 13.9415 122.623 14.1544C122.414 14.3672 122.146 14.5408 121.817 14.6752C121.488 14.8096 121.096 14.8768 120.641 14.8768C119.995 14.8768 119.407 14.7275 118.877 14.4288C118.35 14.1264 117.93 13.6653 117.617 13.0455C117.307 12.422 117.152 11.6342 117.152 10.6822C117.152 9.70772 117.311 8.8938 117.628 8.24044C117.945 7.58707 118.367 7.09797 118.894 6.77316C119.424 6.44834 120.004 6.28593 120.635 6.28593C121.117 6.28593 121.52 6.36807 121.845 6.53234C122.17 6.69289 122.431 6.8945 122.629 7.13718C122.831 7.37612 122.986 7.61134 123.094 7.84281H123.183V6.39794H125.552V15.084C125.552 15.8158 125.373 16.4281 125.015 16.9209C124.656 17.4137 124.16 17.7833 123.525 18.0298C122.894 18.2799 122.168 18.405 121.347 18.405ZM121.397 13.0847C121.782 13.0847 122.106 12.9895 122.371 12.7991C122.64 12.6049 122.846 12.3287 122.987 11.9702C123.133 11.6081 123.206 11.175 123.206 10.671C123.206 10.1669 123.135 9.73012 122.993 9.3605C122.851 8.98714 122.646 8.69779 122.377 8.49245C122.108 8.28711 121.782 8.18443 121.397 8.18443C121.005 8.18443 120.675 8.29084 120.406 8.50365C120.137 8.71273 119.933 9.00394 119.795 9.3773C119.657 9.75065 119.588 10.1819 119.588 10.671C119.588 11.1675 119.657 11.5969 119.795 11.959C119.937 12.3175 120.141 12.5956 120.406 12.7935C120.675 12.9876 121.005 13.0847 121.397 13.0847ZM130.707 15.168C129.837 15.168 129.084 14.9832 128.45 14.6136C127.819 14.2402 127.332 13.7213 126.988 13.0567C126.645 12.3884 126.473 11.6137 126.473 10.7326C126.473 9.84399 126.645 9.06741 126.988 8.40284C127.332 7.73454 127.819 7.21558 128.45 6.84596C129.084 6.47261 129.837 6.28593 130.707 6.28593C131.577 6.28593 132.327 6.47261 132.958 6.84596C133.593 7.21558 134.082 7.73454 134.425 8.40284C134.769 9.06741 134.941 9.84399 134.941 10.7326C134.941 11.6137 134.769 12.3884 134.425 13.0567C134.082 13.7213 133.593 14.2402 132.958 14.6136C132.327 14.9832 131.577 15.168 130.707 15.168ZM130.718 13.3199C131.114 13.3199 131.444 13.2079 131.709 12.9839C131.974 12.7561 132.174 12.4463 132.308 12.0542C132.447 11.6622 132.516 11.2161 132.516 10.7158C132.516 10.2155 132.447 9.76932 132.308 9.3773C132.174 8.98528 131.974 8.67539 131.709 8.44765C131.444 8.2199 131.114 8.10603 130.718 8.10603C130.318 8.10603 129.982 8.2199 129.71 8.44765C129.441 8.67539 129.238 8.98528 129.099 9.3773C128.965 9.76932 128.898 10.2155 128.898 10.7158C128.898 11.2161 128.965 11.6622 129.099 12.0542C129.238 12.4463 129.441 12.7561 129.71 12.9839C129.982 13.2079 130.318 13.3199 130.718 13.3199ZM143.018 8.85087L140.834 8.98528C140.797 8.7986 140.716 8.63059 140.593 8.48125C140.47 8.32817 140.308 8.20683 140.106 8.11723C139.908 8.02389 139.671 7.97722 139.395 7.97722C139.025 7.97722 138.713 8.05563 138.46 8.21243C138.206 8.36551 138.079 8.57085 138.079 8.82847C138.079 9.03381 138.161 9.20742 138.325 9.3493C138.489 9.49117 138.771 9.60504 139.171 9.69091L140.728 10.0045C141.564 10.1763 142.187 10.4526 142.598 10.8334C143.009 11.2142 143.214 11.7145 143.214 12.3343C143.214 12.898 143.048 13.3927 142.716 13.8183C142.387 14.244 141.935 14.5762 141.36 14.8152C140.789 15.0504 140.13 15.168 139.384 15.168C138.245 15.168 137.338 14.9309 136.662 14.4568C135.99 13.9789 135.596 13.3292 135.48 12.5079L137.827 12.3847C137.898 12.7319 138.069 12.997 138.342 13.1799C138.614 13.3591 138.964 13.4487 139.389 13.4487C139.807 13.4487 140.143 13.3684 140.397 13.2079C140.655 13.0436 140.786 12.8327 140.789 12.5751C140.786 12.3585 140.694 12.1812 140.515 12.043C140.336 11.9012 140.059 11.7929 139.686 11.7182L138.196 11.4214C137.356 11.2534 136.731 10.9622 136.32 10.5478C135.913 10.1333 135.71 9.60504 135.71 8.96288C135.71 8.41031 135.859 7.93429 136.158 7.5348C136.46 7.13531 136.884 6.82729 137.429 6.61075C137.978 6.3942 138.62 6.28593 139.356 6.28593C140.442 6.28593 141.297 6.51554 141.921 6.97477C142.548 7.43399 142.914 8.05936 143.018 8.85087Z" fill="#1E1E1E"/>
</svg>
