<svg width="158" height="152" viewBox="0 0 158 152" fill="none" xmlns="http://www.w3.org/2000/svg">
<path d="M73.5 124.5C52.7888 124.5 36 107.711 36 87C36 66.2887 52.7888 49.5 73.5 49.5C94.2113 49.5 111 66.2887 111 87C111 107.711 94.2113 124.5 73.5 124.5ZM69.7612 102L96.2738 75.4837L90.9713 70.1812L69.7612 91.395L59.1525 80.7862L53.85 86.0887L69.7612 102Z" fill="#F6B51E"/>
<circle cx="75.5" cy="33.5" r="7.5" fill="#FFECC0"/>
<circle cx="116.5" cy="52.5" r="7.5" fill="#FFECC0"/>
<circle cx="123.5" cy="90.5" r="7.5" fill="#FFECC0"/>
<circle cx="115.5" cy="125.5" r="7.5" fill="#FFECC0"/>
<circle cx="78.5" cy="137.5" r="7.5" fill="#FFECC0"/>
<circle cx="40.5" cy="125.5" r="7.5" fill="#FFECC0"/>
<circle cx="33.5" cy="52.5" r="7.5" fill="#FFECC0"/>
<circle cx="25.5" cy="90.5" r="7.5" fill="#FFECC0"/>
</svg>
